# xmcd
#
# Track frame offsets:
# 151
# 14741
# 29238
# 41973
# 59827
# 72357
# 92170
# 108782
# 124951
# 150340
# 165910
# 179371
# 194172
# 209933
#
# Disc length: 3036 seconds
#
# Revision: 0
# Processed by: cddbd v1.5PL3 Copyright (c) Steve Scherf et al.
# Submitted via: inCDius 1.1
#
DISCID=db0bda0e
DTITLE=Jim Moss - Sleeping Lady
DYEAR=1900
DGENRE=
TTITLE0=Turkey In The Straw
TTITLE1=Walkin' In My Sleep
TTITLE2=Catnip
TTITLE3=Moonlight Waltz
TTITLE4=Bluegrass Swing
TTITLE5=The Old Mountaineer
TTITLE6=Call Of The Shepherd
TTITLE7=Little Rabbit
TTITLE8=Cruel Willie
TTITLE9=Cotton Eyed Joe
TTITLE10=Salt Creek
TTITLE11=Carol County Blues
TTITLE12=Sleeping Lady
TTITLE13=Midnight At Bean Blossom
EXTD=
EXTT0=
EXTT1=
EXTT2=
EXTT3=
EXTT4=
EXTT5=
EXTT6=
EXTT7=
EXTT8=
EXTT9=
EXTT10=
EXTT11=
EXTT12=
EXTT13=
PLAYORDER=
